:SAMPLES-PER-SECOND 30
:FULLY-SPECIFIED
:DEGREES
440
root  -2.42387 38.2418 70.8749 8.5295 -5.0358 -0.472538
RightUpLeg  -23.2939 -5.45097 -0.329251
RightLeg  64.8707 14.1609 -4.97194
RightFoot  -3.40049 -0.765419 8.92652
RightToes  5.82077e-011 -3.18055e-015 -2.98177e-016
Spine  19.7084 2.40841 1.51074
Spine1  -7.72024 2.77248 -2.85644
HEad  -33.0324 4.88677 2.17205
LeftShoulder1  -3.88251e-019 9.70628e-020 -3.87848e-018
LeftArm  -22.6775 54.4114 -70.5677
LeftForeArm  8.79519 -12.0794 -3.58766
LeftHand  -0.730008 -4.7312 8.94974
RightShoulder  7.65913 10.7915 35.6126
RightArm  31.3222 -36.0226 20.409
RightForeArm  6.38018 23.2228 -12.8028
RightHand  -1.61698 7.67208 -14.3232
LeftUpLeg  -30.7368 -3.8681 -7.93696
LeftLeg  33.4314 6.14763 14.9645
LeftFoot  -11.4183 -0.111245 5.47014
LeftToes  9.37148e-011 4.50685e-012 -4.11107e-011
441
root  -2.44179 38.7965 71.0678 7.52815 -6.4681 -1.05442
RightUpLeg  -24.1655 -6.74454 0.305974
RightLeg  59.7305 12.5626 -7.2599
RightFoot  -5.14264 -0.537804 7.74778
RightToes  5.82077e-011 -3.18055e-015 -2.98177e-016
Spine  18.7621 2.39008 1.31402
Spine1  -7.44495 2.7076 -2.12866
HEad  -31.0278 6.05829 2.0974
LeftShoulder1  -3.88251e-019 9.70628e-020 -3.87848e-018
LeftArm  -23.1358 54.5606 -71.1601
LeftForeArm  8.13412 -13.2697 -3.48056
LeftHand  -0.705814 -4.70348 8.67276
RightShoulder  7.61814 10.7634 35.47
RightArm  31.4191 -36.4891 19.7657
RightForeArm  6.27759 24.3929 -13.3925
RightHand  -1.6213 7.73482 -14.3175
LeftUpLeg  -26.8862 -3.73949 -7.20011
LeftLeg  29.1937 8.17284 14.0377
LeftFoot  -9.76802 -0.191917 5.69035
LeftToes  9.37148e-011 4.50685e-012 -4.11107e-011
442
root  -2.49689 39.1982 71.2491 6.66132 -7.56157 -1.29896
RightUpLeg  -24.3966 -8.64868 0.910105
RightLeg  53.1034 10.3629 -9.11695
RightFoot  -6.72962 -0.366871 6.73986
RightToes  5.82077e-011 -3.18055e-015 -2.98177e-016
Spine  17.4526 2.27688 0.558761
Spine1  -6.73233 2.42919 -1.13274
HEad  -29.2943 7.40755 1.7593
LeftShoulder1  -3.88251e-019 9.70628e-020 -3.87848e-018
LeftArm  -22.8238 54.3546 -71.186
LeftForeArm  7.0633 -14.8861 -3.42328
LeftHand  -0.572034 -4.21147 7.43542
RightShoulder  7.62097 10.7606 35.4901
RightArm  32.2683 -36.5179 18.7959
RightForeArm  5.41014 25.9284 -14.1572
RightHand  -1.62542 7.72757 -14.3285
LeftUpLeg  -23.6494 -2.67432 -6.94306
LeftLeg  25.6276 8.9435 12.65
LeftFoot  -8.59414 -0.263736 6.12131
LeftToes  9.37148e-011 4.50685e-012 -4.11107e-011
443
root  -2.59034 39.4595 71.4189 5.7934 -8.13172 -1.22757
RightUpLeg  -23.7532 -10.87 1.35189
RightLeg  45.3912 8.61802 -9.0856
RightFoot  -9.04532 -0.197016 6.02364
RightToes  5.82077e-011 -3.18055e-015 -2.98177e-016
Spine  15.6249 2.07072 -0.577701
Spine1  -5.08565 2.00043 0.0189753
HEad  -28.2881 8.78081 0.997524
LeftShoulder1  -3.88251e-019 9.70628e-020 -3.87848e-018
LeftArm  -21.4858 53.4148 -70.9031
LeftForeArm  5.73373 -16.6374 -3.26211
LeftHand  -0.476905 -3.9906 6.39179
RightShoulder  7.59246 10.7469 35.3776
RightArm  33.2311 -36.1768 17.9115
RightForeArm  4.35207 27.4736 -14.9434
RightHand  -1.63458 7.70637 -14.4315
LeftUpLeg  -20.9799 -1.34698 -7.00051
LeftLeg  22.9138 8.79008 11.2676
LeftFoot  -7.86738 -0.31604 6.45766
LeftToes  9.37148e-011 4.50685e-012 -4.11107e-011
444
root  -2.71258 39.628 71.5804 4.89993 -7.93369 -1.08056
RightUpLeg  -22.1641 -13.2092 1.7116
RightLeg  36.7302 8.43533 -7.06593
RightFoot  -10.7821 -0.0734558 4.90413
RightToes  5.82077e-011 -3.18055e-015 -2.98177e-016
Spine  13.936 1.67827 -1.61819
Spine1  -3.47342 1.34977 1.31856
HEad  -27.542 9.85307 0.52974
LeftShoulder1  -3.88251e-019 9.70628e-020 -3.87848e-018
LeftArm  -19.1793 52.0243 -70.4236
LeftForeArm  4.45814 -18.3086 -2.83332
LeftHand  -0.489082 -4.39142 6.27761
RightShoulder  7.52264 10.7054 35.1188
RightArm  33.8821 -35.9417 16.8967
RightForeArm  3.87712 28.8674 -15.6966
RightHand  -1.66768 7.75064 -14.6695
LeftUpLeg  -18.7719 -1.46598 -6.94502
LeftLeg  21.0364 9.01255 10.49
LeftFoot  -7.29672 -0.347001 6.46199
LeftToes  9.37148e-011 4.50685e-012 -4.11107e-011
445
root  -2.87255 39.6987 71.7248 3.87994 -7.03702 -0.886082
RightUpLeg  -19.7585 -15.0721 1.78982
RightLeg  28.1988 9.82192 -4.4977
RightFoot  -10.5078 -0.0602737 3.82977
RightToes  5.82077e-011 -3.18055e-015 -2.98177e-016
Spine  12.971 1.19839 -2.54577
Spine1  -2.59604 0.572498 2.73244
HEad  -26.7299 10.3813 0.713313
LeftShoulder1  -3.88251e-019 9.70628e-020 -3.87848e-018
LeftArm  -16.3491 50.4454 -69.7129
LeftForeArm  3.3179 -19.8078 -2.21225
LeftHand  -0.550289 -4.86537 6.71924
RightShoulder  7.47894 10.6689 34.979
RightArm  34.0996 -36.0172 15.4158
RightForeArm  3.9662 29.9773 -16.3352
RightHand  -1.70993 7.73187 -15.0543
LeftUpLeg  -17.0362 -2.66373 -6.83238
LeftLeg  20.2357 9.37014 10.2626
LeftFoot  -7.06576 -0.346121 6.20656
LeftToes  9.37148e-011 4.50685e-012 -4.11107e-011
446
root  -3.09004 39.7206 71.8583 2.623 -5.83856 -0.310284
RightUpLeg  -16.9065 -15.2687 1.05365
RightLeg  21.6904 10.8464 -3.11353
RightFoot  -8.31998 -0.119883 3.30293
RightToes  5.82077e-011 -3.18055e-015 -2.98177e-016
Spine  12.3449 0.873025 -3.69996
Spine1  -1.78805 -0.0119338 3.75405
HEad  -26.0372 10.3141 1.12637
LeftShoulder1  -3.88251e-019 9.70628e-020 -3.87848e-018
LeftArm  -13.4183 48.5218 -68.8644
LeftForeArm  1.86545 -21.0746 -1.49643
LeftHand  -0.589306 -5.01842 7.07489
RightShoulder  7.50638 10.6718 35.1106
RightArm  33.7441 -36.2823 13.6876
RightForeArm  4.06671 30.4205 -16.5983
RightHand  -1.75318 7.53776 -15.6504
LeftUpLeg  -15.2558 -3.67096 -7.11063
LeftLeg  19.7133 9.24994 9.97777
LeftFoot  -7.00671 -0.335025 5.94187
LeftToes  9.37148e-011 4.50685e-012 -4.11107e-011
447
root  -3.34438 39.7541 72.0128 1.32019 -4.68379 0.570174
RightUpLeg  -14.1804 -13.4344 -0.313754
RightLeg  18.4084 9.57584 -3.11878
RightFoot  -6.35498 -0.15129 2.75987
RightToes  5.82077e-011 -3.18055e-015 -2.98177e-016
Spine  11.3513 0.740666 -4.59051
Spine1  -0.502009 -0.233376 3.94731
HEad  -25.3118 9.81041 1.38074
LeftShoulder1  -3.88251e-019 9.70628e-020 -3.87848e-018
LeftArm  -10.8618 46.4022 -68.0561
LeftForeArm  -0.195311 -22.1659 -0.686279
LeftHand  -0.614686 -5.09404 7.31519
RightShoulder  7.57575 10.7016 35.3934
RightArm  32.7779 -36.6806 12.309
RightForeArm  4.08939 29.6046 -16.1245
RightHand  -1.80769 7.29583 -16.4219
LeftUpLeg  -13.1867 -4.64009 -7.70744
LeftLeg  18.7978 9.23918 9.55954
LeftFoot  -6.82726 -0.325726 5.61133
LeftToes  9.37148e-011 4.50685e-012 -4.11107e-011
448
root  -3.59521 39.85 72.2059 0.316943 -3.66754 1.32167
RightUpLeg  -11.638 -10.9256 -1.55863
RightLeg  16.8716 6.59263 -3.34151
RightFoot  -5.85506 -0.11007 1.89706
RightToes  5.82077e-011 -3.18055e-015 -2.98177e-016
Spine  10.0094 0.623139 -4.56427
Spine1  0.658849 -0.176731 3.22422
HEad  -24.0064 9.04529 1.52634
LeftShoulder1  -3.88251e-019 9.70628e-020 -3.87848e-018
LeftArm  -8.65106 44.8164 -67.3044
LeftForeArm  -3.07344 -23.3132 0.342039
LeftHand  -0.66203 -5.25552 7.74069
RightShoulder  7.63359 10.7232 35.6355
RightArm  31.522 -37.2752 11.5629
RightForeArm  4.49163 27.2237 -14.8354
RightHand  -1.84243 7.14566 -16.9245
LeftUpLeg  -10.9571 -5.63439 -8.19801
LeftLeg  17.1197 9.49109 8.88276
LeftFoot  -6.38194 -0.32515 5.25115
LeftToes  9.37148e-011 4.50685e-012 -4.11107e-011
449
root  -3.82021 40.0152 72.4237 -0.265708 -2.95495 1.51169
RightUpLeg  -9.04131 -8.61329 -2.11325
RightLeg  14.7197 3.30072 -2.85583
RightFoot  -5.78464 -0.0605209 1.12578
RightToes  5.82077e-011 -3.18055e-015 -2.98177e-016
Spine  8.72312 0.506931 -3.3323
Spine1  1.06181 0.10384 1.79842
HEad  -22.0737 8.00753 1.60012
LeftShoulder1  -3.88251e-019 9.70628e-020 -3.87848e-018
LeftArm  -6.55722 44.2405 -66.6277
LeftForeArm  -6.74857 -24.6244 1.62922
LeftHand  -0.720581 -5.27593 8.38754
RightShoulder  7.65455 10.7228 35.741
RightArm  29.9157 -38.0003 11.2118
RightForeArm  5.99945 23.6946 -12.8863
RightHand  -1.78064 7.02343 -16.5216
LeftUpLeg  -8.8054 -6.69426 -8.1301
LeftLeg  14.8502 10.0921 8.06212
LeftFoot  -5.70315 -0.324934 4.79254
LeftToes  9.37148e-011 4.50685e-012 -4.11107e-011
450
root  -4.02196 40.2051 72.6438 -0.571736 -2.84717 1.21745
RightUpLeg  -6.5174 -5.6939 -2.08992
RightLeg  11.5728 -0.0320819 -1.63557
RightFoot  -4.90241 -0.0323031 0.578425
RightToes  5.82077e-011 -3.18055e-015 -2.98177e-016
Spine  7.61805 0.642565 -1.44407
Spine1  0.939525 0.674191 0.158519
HEad  -20.0045 6.7042 1.43485
LeftShoulder1  -3.88251e-019 9.70628e-020 -3.87848e-018
LeftArm  -5.15349 44.5349 -66.3096
LeftForeArm  -10.4499 -25.9111 2.95206
LeftHand  -0.761106 -5.08773 8.99942
RightShoulder  7.64291 10.7131 35.7042
RightArm  25.3077 -38.545 10.8264
RightForeArm  11.2486 20.0098 -9.69621
RightHand  -1.61072 6.87949 -15.1464
LeftUpLeg  -6.83653 -6.95862 -7.59615
LeftLeg  12.359 10.4273 7.17483
LeftFoot  -4.92984 -0.327612 4.40284
LeftToes  9.37148e-011 4.50685e-012 -4.11107e-011
